# xmcd
#
# Track frame offsets:
#	150
#	15401
#	37067
#	53363
#	70066
#	88145
#	103829
#	120785
#	135693
#	150168
#	167520
#	183870
#	198972
#	215697
#	233669
#	248845
# Disc length: 3556 seconds
# Revision: 1
# Processed by: cddbd v1.5.1PL2 Copyright (c) Steve Scherf et al.
#
# Submitted via: libkcddb 0.21
#
DISCID=c20de210
DTITLE=House Club 2 - Various
DYEAR=1900
DGENRE=Club-house
TTITLE0=Benassi Bros Feat. Dhany - Make Me Feel
TTITLE1=Tony Montana Experience - Mamma Maria (Prezioso and Marvin Radio Edit)
TTITLE2=Scooter - Suavemente (Radio Edit)
TTITLE3=The Disco Boys Feat. Manfred Mann's Earth Band - For You (Original Radio Edit)
TTITLE4=Disco Queen Feat. Luisa Pepe - A Far L'Amore (Barrucco's Short House)
TTITLE5=Two Pearls - I Wanna Cha Cha (Short Clubmix)
TTITLE6=Warp Brothers - Smells Like Teen Spirit (Voc 2 The Floor Radio)
TTITLE7=8 Ball - Phunky Muzic (Original Radio Edit)
TTITLE8=Tiesto - Just Be (Radio Edit)
TTITLE9=The Mystery - Fever (Radio Edit)
TTITLE10=Project Medusa vs. Exor - Eclipse (Donald and Giles Vocal Radio Edit)
TTITLE11=Gloria Gaynor - Never Can Sey Goodbye '05 (Plush and Robin Radio Cut)
TTITLE12=Don Diablo vs. Divided - Easy Lover (Radio Edit)
TTITLE13=Paffendorf - On and On (Short Edit)
TTITLE14=Team X - Clap Your Hands (Original Edit)
TTITLE15=Van Zanten - F..kin' Fresh Beatz (Van Zanten Edit)
EXTD=
EXTT0=
EXTT1=
EXTT2=
EXTT3=
EXTT4=
EXTT5=
EXTT6=
EXTT7=
EXTT8=
EXTT9=
EXTT10=
EXTT11=
EXTT12=
EXTT13=
EXTT14=
EXTT15=
PLAYORDER=
